<?xml version="1.0" encoding="UTF-8"?>
<svg width="1280px" height="137px" viewBox="0 0 1280 137" version="1.1" xmlns="http://www.w3.org/2000/svg" xmlns:xlink="http://www.w3.org/1999/xlink">
    <title>decor1</title>
    <g id="Page-1" stroke="none" stroke-width="1" fill="none" fill-rule="evenodd">
        <g id="decor1" fill="#000000" fill-rule="nonzero">
            <g id="svg_1" transform="translate(640.000000, 68.500000) scale(-1, 1) rotate(-180.000000) translate(-640.000000, -68.500000) translate(0.100000, 0.000000)">
                <path d="M75,136 C62.8,134.4 49,130.3 38,124.9 C29.2,120.6 26.3,118.5 19.4,111.6 C9.8,102 5.9,95.1 2.4,81.6 C-0.6,69.9 -0.7,66.7 2,55.9 C4.8,44.4 8.1,38 14.6,31 C24.8,20 39.1,15.4 56.1,17.9 C72.3,20.1 83.9,28.2 90.7,41.9 C94.4,49.3 94.4,49.6 94.4,61.4 C94.4,72.9 94.2,73.8 91.2,80.2 C85.5,92.3 74.9,100.2 64.5,100.3 C54.7,100.4 49.1,94.7 53.9,89.5 C57.2,86 61.9,85.4 69.5,87.5 L76,89.3 L79,86.4 C84.4,81.2 87.3,73.7 87.7,63.4 C88.5,45 80.7,32.9 64.1,26.7 C59.6,25 56.1,24.6 47.4,24.5 C36.9,24.5 36,24.7 29.7,27.8 C16.1,34.5 7.9,49.7 7.9,68.5 C7.9,105.9 42.1,130 94.9,130 C119.3,130 140.7,125.3 173.1,113 C181.6,109.8 181.7,109.8 184.3,111.6 C185.7,112.7 186.9,113.8 186.9,114.1 C186.9,114.8 171.3,121 157.9,125.5 C145.6,129.7 134.5,132.6 123.4,134.6 C113.6,136.4 85.1,137.2 75,136 Z" id="svg_2"></path>
                <path d="M1164.9,135.9 C1149.3,134.2 1128,128.3 1104.7,119.3 C1098.2,116.8 1092.9,114.4 1092.9,114.1 C1092.9,113.8 1094.1,112.7 1095.5,111.6 C1098.1,109.8 1098.2,109.8 1106.7,113 C1139.1,125.3 1160.5,130 1184.9,130 C1237.7,130 1271.9,105.9 1271.9,68.5 C1271.9,49.7 1263.7,34.5 1250.1,27.8 C1243.8,24.7 1242.9,24.5 1232.4,24.5 C1223.7,24.6 1220.2,25 1215.7,26.7 C1199.1,32.9 1191.3,45 1192.1,63.4 C1192.5,73.7 1195.4,81.2 1200.8,86.4 L1203.8,89.3 L1210.3,87.5 C1217.9,85.4 1222.6,86 1225.9,89.5 C1230.7,94.7 1225.1,100.4 1215.3,100.3 C1204.9,100.2 1194.3,92.3 1188.6,80.2 C1185.6,73.8 1185.4,72.9 1185.4,61.4 C1185.4,49.6 1185.4,49.3 1189.1,41.9 C1195.9,28.2 1207.5,20.1 1223.7,17.9 C1240.7,15.4 1255,20 1265.2,31 C1271.7,38 1275,44.4 1277.8,55.9 C1280.5,66.7 1280.4,69.9 1277.4,81.6 C1273.9,95.1 1270,102 1260.4,111.6 C1253.5,118.5 1250.6,120.6 1241.8,124.9 C1220.8,135.2 1193.7,139.1 1164.9,135.9 Z" id="svg_3"></path>
                <path d="M456.6,133.9 C448.4,132 439.7,125.8 435.3,118.8 C432.2,114 429.9,105.1 429.9,98.4 C429.9,91.3 433.2,79.1 437.4,70.9 C439.3,67.2 440.5,63.9 440.1,63.6 C439.6,63.3 432.6,67 424.3,71.7 C369.6,102.9 332.7,119.4 304.1,125.4 C274.5,131.6 246.1,131.3 222.3,124.5 C164.5,108 138.3,52.3 171.7,16.8 C182.6,5.2 194.7,0 210.4,0 C219.6,0 226.3,1.6 235.2,5.8 C246.5,11.1 257.2,20.8 258.5,26.9 C258.8,28.3 259.2,30 259.4,30.7 C259.6,31.3 259.3,33.4 258.8,35.4 C256.8,42.6 248.3,45.5 243.4,40.5 C240.7,37.9 240.6,37.2 240.5,26.6 L240.4,19.6 L236.1,16.7 C229,11.9 219.5,9 210.8,9 C188,9 170.5,23.9 166.6,46.6 C165,55.7 166.8,65.2 172.1,76 C175.4,82.9 177.9,86.1 184.9,93 C201.9,109.7 217.6,115.9 243,116 C263.2,116 282.8,111.7 311.3,101 C332.1,93.3 350.5,84.8 404.9,58 C432.7,44.4 459.9,31.4 465.4,29.2 C500.9,15 538.7,8.1 565.2,10.9 C589.2,13.5 603.7,19.6 616.5,32.4 C629,45 635.000893,58.9 635.000893,76.1 C635.1,94.4 626.8,106.5 610.2,112.1 C592,118.4 564.3,112.4 558.4,100.9 C554.9,94.2 558,88 564.8,88 C570,88 574.5,91.2 577.6,97.1 C582.2,105.6 582.8,106 591.8,106 C606.6,106 618.1,100.3 623.1,90.6 C625.8,85.4 626.7,72.2 624.9,64.1 C620.6,44.5 602.9,28.4 578.4,21.9 C566.6,18.7 540.7,18.7 525.9,21.9 C496.4,28.2 472,40.6 455.9,57.7 C442.4,71.9 437.4,83 437.4,99 C437.4,106.8 437.8,109.2 439.6,112.6 C442.4,117.9 447.2,122.5 452.8,125.2 C457.6,127.5 469.9,128.8 476.3,127.6 C479.6,127 480.2,126.3 482.8,120.7 C484.3,117.3 486.5,113.7 487.7,112.7 C492.4,108.5 499.1,113.2 497.5,119.6 C496.2,124.5 488.2,131.4 481.3,133.3 C474.9,135.1 463,135.4 456.6,133.9 Z" id="svg_4"></path>
                <path d="M800.4,134.1 C792.1,131.9 783.7,125.2 782.3,119.3 C780.7,113.2 787.5,108.6 792.1,112.7 C793.3,113.7 795.5,117.3 797,120.7 C799.6,126.3 800.2,127 803.5,127.6 C809.9,128.8 822.2,127.5 827,125.2 C832.6,122.5 837.4,117.9 840.2,112.6 C842,109.2 842.4,106.8 842.4,99 C842.4,83 837.4,71.9 823.9,57.7 C807.8,40.6 783.4,28.2 753.9,21.9 C739.1,18.7 713.2,18.7 701.4,21.9 C677.7,28.2 660.3,43.4 655.3,62.4 C654.5,65.2 653.9,71.3 653.9,76 C653.9,82.8 654.4,85.5 656.3,89.6 C661.2,100.1 672.6,106 688,106 C697,106 697.6,105.6 702.2,97.1 C705.3,91.2 709.8,88 715,88 C721.8,88 724.9,94.2 721.4,100.9 C715.5,112.4 687.8,118.4 669.6,112.1 C653,106.5 644.6,94.2 644.699118,76 C644.9,58.9 650.8,44.9 663.3,32.4 C676.1,19.6 690.6,13.5 714.6,10.9 C741.1,8.1 778.9,15 814.4,29.2 C819.9,31.4 847.1,44.4 874.9,58 C929.3,84.8 947.7,93.3 968.5,101 C997,111.7 1016.6,116 1036.8,116 C1062.2,115.9 1077.9,109.7 1094.9,93 C1101.9,86.1 1104.4,82.9 1107.7,76 C1113,65.2 1114.8,55.7 1113.2,46.6 C1109.3,23.9 1091.8,9 1069,9 C1060.3,9 1050.8,11.9 1043.7,16.7 L1039.4,19.6 L1039.3,26.6 C1039.2,37.2 1039.1,37.9 1036.4,40.5 C1031.4,45.5 1022.9,42.6 1020.9,35.1 C1019,27.9 1022.8,20.6 1032.4,13.3 C1044,4.4 1056.3,0 1069.4,0 C1085.1,0 1095.3,4.3 1106.9,16 C1124.6,33.6 1127.8,56.9 1115.9,80 C1097.3,115.6 1051.6,134.7 998.1,129 C958.5,124.7 922.3,110 852,69.7 C845.7,66.1 840.2,63.3 839.7,63.6 C839.3,63.9 840.5,67.3 842.5,71.2 C855.9,97.8 850.5,122 829,131.8 C824.5,133.9 821.6,134.4 813.4,134.6 C807.9,134.8 802.1,134.6 800.4,134.1 Z" id="svg_5"></path>
                <path d="M206,102.9 C204.2,101.8 202.8,100.7 203.1,100.5 C203.6,100 232.3,87.2 247.9,80.5 C269,71.5 291.4,62.9 316.4,54.2 C329.1,49.7 340.9,45.6 342.7,45 C344.5,44.3 346.6,42.5 347.4,40.9 C350.2,35.6 361.9,34.8 361.9,40 C361.9,44.5 356.1,47.9 337.2,54.4 C304.7,65.5 257,83.9 234.4,94 C220.8,100 209.6,105 209.5,105 C209.4,105 207.9,104.1 206,102.9 Z" id="svg_6"></path>
                <path d="M1045,93.9 C1023.8,84.4 969,63.3 938.5,52.9 C925.3,48.5 918.5,44.4 918.1,40.7 C917.8,38.6 918.3,37.8 920.3,37 C925.1,35.2 929.7,37.1 933.2,42.3 C933.9,43.4 945.2,47.8 962.4,53.8 C977.8,59.2 999,67.1 1009.4,71.3 C1025.9,77.9 1071.7,97.6 1075.8,100 C1077,100.6 1076.5,101.3 1073.8,102.9 C1071.9,104 1070.2,105 1069.9,104.9 C1069.6,104.9 1058.4,99.9 1045,93.9 Z" id="svg_7"></path>
                <path d="M16.2,71.3 C14.4,70.6 14.6,66.3 16.5,65.6 C18.5,64.8 77.2,64.8 79.2,65.6 C80.8,66.2 80.3,70 78.5,71.2 C77.3,72 18.1,72.1 16.2,71.3 Z" id="svg_8"></path>
                <path d="M102.2,70.4 C101.9,69.5 102,68 102.6,67.1 C103.5,65.7 106.7,65.5 125.8,65.2 C149.4,64.9 152.3,65.4 151.7,69.3 C151.4,71.5 151.2,71.5 127.1,71.8 C105.3,72 102.8,71.9 102.2,70.4 Z" id="svg_9"></path>
                <path d="M177.4,70.4 C176.5,69.5 175.9,68 176.1,67.1 C176.4,65.7 180.5,65.5 217.7,65.2 C240.5,65.1 259.7,65.4 260.6,65.8 C261.7,66.5 260.4,67.4 255.5,69.4 L248.9,72 L214,72 C183.1,72 178.9,71.8 177.4,70.4 Z" id="svg_10"></path>
                <path d="M314.5,71.1 C314.2,70.6 316.7,69.2 320.2,67.9 C325.8,65.7 328.2,65.5 346.3,65.2 C357.3,65 367.4,65.2 368.8,65.6 C371.2,66.2 371,66.5 365.4,69.1 L359.4,72 L337.2,72 C325,72 314.8,71.6 314.5,71.1 Z" id="svg_11"></path>
                <path d="M454.6,71.2 C454.3,70.8 455,69.4 456.1,68 L458.1,65.5 L534.8,65.2 C576.9,65.1 612.4,65.2 613.7,65.5 C616.3,66.1 616.8,70.4 614.3,71.4 C612,72.3 455.1,72.1 454.6,71.2 Z" id="svg_12"></path>
                <path d="M665.2,71.3 C662.9,70.4 663.7,66.1 666.2,65.5 C667.4,65.2 702.9,65.1 745,65.2 L821.7,65.5 L823.7,68 C824.8,69.4 825.5,70.8 825.2,71.2 C824.7,72.1 667.2,72.2 665.2,71.3 Z" id="svg_13"></path>
                <path d="M914.4,69.1 C908.8,66.5 908.6,66.2 911,65.6 C912.4,65.2 922.5,65 933.5,65.2 C951.6,65.5 954,65.7 959.6,67.9 C963.1,69.2 965.6,70.6 965.3,71.1 C965,71.6 954.8,72 942.6,72 L920.4,72 L914.4,69.1 Z" id="svg_14"></path>
                <path d="M1024.6,69.6 C1021.3,68.2 1018.5,66.9 1018.2,66.6 C1016.8,65.2 1025.5,65 1062.9,65.2 C1099.4,65.5 1103.4,65.7 1103.7,67.1 C1103.9,68 1103.3,69.5 1102.4,70.4 C1100.9,71.8 1096.7,72 1065.6,72 C1030.8,72 1030.3,71.9 1024.6,69.6 Z" id="svg_15"></path>
                <path d="M1128.6,71.3 C1127.2,70 1128,67 1129.9,66 C1131.1,65.3 1139.9,65.1 1154,65.2 C1173.1,65.5 1176.3,65.7 1177.2,67.1 C1177.8,68 1177.9,69.5 1177.6,70.4 C1177,71.8 1174.3,72 1153.1,72 C1140,72 1128.9,71.7 1128.6,71.3 Z" id="svg_16"></path>
                <path d="M1201.3,71.2 C1199.5,70 1199,66.2 1200.6,65.6 C1202.6,64.8 1261.3,64.8 1263.3,65.6 C1264.2,65.9 1264.9,67.2 1264.9,68.5 C1264.9,69.8 1264.2,71.1 1263.3,71.4 C1261,72.3 1202.6,72.1 1201.3,71.2 Z" id="svg_17"></path>
            </g>
        </g>
    </g>
</svg>