<svg id="SvgjsSvg1014" width="288" height="288" xmlns="http://www.w3.org/2000/svg" version="1.1" xmlns:xlink="http://www.w3.org/1999/xlink" xmlns:svgjs="http://svgjs.com/svgjs"><defs id="SvgjsDefs1015"></defs><g id="SvgjsG1016"><svg xmlns="http://www.w3.org/2000/svg" data-name="logosandtypes com" viewBox="0 0 150 150" width="288" height="288"><path fill="none" d="M0,.2H150v150H0Z" transform="translate(0 -.2)"></path><path fill="#e39b3b" d="M97.16,42c-7.91,0-9.7,8.58-5,15.68a102.76,102.76,0,0,1,9.29,16.8c3.67-8.48,5.51-15.93,5.51-21.6C106.76,45.67,102.42,42,97.16,42Zm-60.09,2.4c-6.39,0-10.17,4.8-10.17,10.32,0,10.72,15.53,12.81,24,25.27.26-2,1.53-10.16,1.53-14.7C52.48,54.4,48.2,44.39,37.07,44.39Zm37.11,26c0,5-2.14,14.25-2.14,24.15,0,6.49,2.4,11.13,6.89,11.13,5.77,0,6.23-8,3.68-17.31A61.17,61.17,0,0,0,74.18,70.38Zm4.5,56.88c-12.72,0-22.57-6.94-26.25-18.07-6.79,12-20.73,15.77-36.55,15.06l1.58-21.75c12.1.61,16.18-2.15,16.18-7,0-3-1.37-4.64-8.88-9.7C16.85,80.24,4.85,72.07,4.85,55.12,4.85,37.35,18.43,22.49,37,22.49c12.82,0,23.7,5.82,31.2,17.77,4.39-13,17-20.07,29.67-20.07,15.26,0,31,10.62,31,32.07,0,8.88-2,19.45-8,32.42-2.4,5.1-2.14,11.28,1.23,14.86,4.39,4.64,11.59,3.37,16.39,1.53L146,121.39c-15.93,6.08-32.62,3.83-41.61-8.94C98.85,122.87,91.08,127.26,78.68,127.26Z" transform="translate(0 -.2)" class="color404042 svgShape"></path></svg></g></svg>